<?xml version="1.0" encoding="UTF-8"?>
<svg xmlns="http://www.w3.org/2000/svg" width="64" height="64" viewBox="0 0 64 64">
  <rect x="2" y="5" width="1" height="1" fill="#ffffff" fill-opacity="0.5" />
  <rect x="9" y="1" width="1" height="1" fill="#000000" fill-opacity="0.6" />
  <rect x="17" y="11" width="1" height="1" fill="#ffffff" fill-opacity="0.4" />
  <rect x="23" y="3" width="1" height="1" fill="#000000" fill-opacity="0.5" />
  <rect x="29" y="15" width="1" height="1" fill="#ffffff" fill-opacity="0.6" />
  <rect x="34" y="7" width="1" height="1" fill="#000000" fill-opacity="0.4" />
  <rect x="41" y="13" width="1" height="1" fill="#ffffff" fill-opacity="0.5" />
  <rect x="47" y="2" width="1" height="1" fill="#000000" fill-opacity="0.6" />
  <rect x="54" y="9" width="1" height="1" fill="#ffffff" fill-opacity="0.4" />
  <rect x="60" y="14" width="1" height="1" fill="#000000" fill-opacity="0.5" />
  <rect x="4" y="19" width="1" height="1" fill="#000000" fill-opacity="0.5" />
  <rect x="11" y="23" width="1" height="1" fill="#ffffff" fill-opacity="0.6" />
  <rect x="19" y="27" width="1" height="1" fill="#000000" fill-opacity="0.4" />
  <rect x="25" y="20" width="1" height="1" fill="#ffffff" fill-opacity="0.5" />
  <rect x="31" y="25" width="1" height="1" fill="#000000" fill-opacity="0.6" />
  <rect x="37" y="22" width="1" height="1" fill="#ffffff" fill-opacity="0.4" />
  <rect x="44" y="28" width="1" height="1" fill="#000000" fill-opacity="0.5" />
  <rect x="50" y="21" width="1" height="1" fill="#ffffff" fill-opacity="0.6" />
  <rect x="57" y="26" width="1" height="1" fill="#000000" fill-opacity="0.4" />
  <rect x="62" y="24" width="1" height="1" fill="#ffffff" fill-opacity="0.5" />
  <rect x="3" y="35" width="1" height="1" fill="#ffffff" fill-opacity="0.4" />
  <rect x="8" y="40" width="1" height="1" fill="#000000" fill-opacity="0.6" />
  <rect x="15" y="33" width="1" height="1" fill="#ffffff" fill-opacity="0.5" />
  <rect x="21" y="37" width="1" height="1" fill="#000000" fill-opacity="0.4" />
  <rect x="28" y="42" width="1" height="1" fill="#ffffff" fill-opacity="0.6" />
  <rect x="35" y="34" width="1" height="1" fill="#000000" fill-opacity="0.5" />
  <rect x="42" y="39" width="1" height="1" fill="#ffffff" fill-opacity="0.4" />
  <rect x="49" y="36" width="1" height="1" fill="#000000" fill-opacity="0.6" />
  <rect x="55" y="41" width="1" height="1" fill="#ffffff" fill-opacity="0.5" />
  <rect x="61" y="38" width="1" height="1" fill="#000000" fill-opacity="0.4" />
  <rect x="5" y="48" width="1" height="1" fill="#000000" fill-opacity="0.5" />
  <rect x="13" y="52" width="1" height="1" fill="#ffffff" fill-opacity="0.6" />
  <rect x="20" y="46" width="1" height="1" fill="#000000" fill-opacity="0.4" />
  <rect x="27" y="55" width="1" height="1" fill="#ffffff" fill-opacity="0.5" />
  <rect x="33" y="50" width="1" height="1" fill="#000000" fill-opacity="0.6" />
  <rect x="40" y="54" width="1" height="1" fill="#ffffff" fill-opacity="0.4" />
  <rect x="46" y="47" width="1" height="1" fill="#000000" fill-opacity="0.5" />
  <rect x="53" y="53" width="1" height="1" fill="#ffffff" fill-opacity="0.6" />
  <rect x="59" y="49" width="1" height="1" fill="#000000" fill-opacity="0.4" />
  <rect x="6" y="60" width="1" height="1" fill="#ffffff" fill-opacity="0.5" />
  <rect x="14" y="62" width="1" height="1" fill="#000000" fill-opacity="0.6" />
  <rect x="22" y="59" width="1" height="1" fill="#ffffff" fill-opacity="0.4" />
  <rect x="30" y="61" width="1" height="1" fill="#000000" fill-opacity="0.5" />
  <rect x="38" y="58" width="1" height="1" fill="#ffffff" fill-opacity="0.6" />
  <rect x="45" y="62" width="1" height="1" fill="#000000" fill-opacity="0.4" />
  <rect x="52" y="59" width="1" height="1" fill="#ffffff" fill-opacity="0.5" />
  <rect x="58" y="61" width="1" height="1" fill="#000000" fill-opacity="0.6" />
</svg>
